<?xml version="1.0" encoding="UTF-8" standalone="no"?>
<!DOCTYPE svg PUBLIC "-//W3C//DTD SVG 1.1//EN"
 "http://www.w3.org/Graphics/SVG/1.1/DTD/svg11.dtd">
<!-- Generated by graphviz version 2.43.0 (0)
 -->
<!-- Title: G Pages: 1 -->
<svg width="676pt" height="638pt"
 viewBox="0.00 0.00 676.00 638.00" xmlns="http://www.w3.org/2000/svg" xmlns:xlink="http://www.w3.org/1999/xlink">
<g id="graph0" class="graph" transform="scale(1 1) rotate(0) translate(4 634)">
<title>G</title>
<polygon fill="white" stroke="transparent" points="-4,4 -4,-634 672,-634 672,4 -4,4"/>
<g id="clust1" class="cluster">
<title>cluster_root</title>
<g id="a_clust1"><a xlink:title="eventq_index=0&#10;full_system=false&#10;sim_quantum=0&#10;time_sync_enable=false&#10;time_sync_period=100000000000&#10;time_sync_spin_threshold=100000000">
<path fill="#bab6ae" stroke="#000000" d="M20,-8C20,-8 648,-8 648,-8 654,-8 660,-14 660,-20 660,-20 660,-610 660,-610 660,-616 654,-622 648,-622 648,-622 20,-622 20,-622 14,-622 8,-616 8,-610 8,-610 8,-20 8,-20 8,-14 14,-8 20,-8"/>
<text text-anchor="middle" x="334" y="-606.8" font-family="Arial" font-size="14.00" fill="#000000">root </text>
<text text-anchor="middle" x="334" y="-591.8" font-family="Arial" font-size="14.00" fill="#000000">: Root</text>
</a>
</g>
</g>
<g id="clust2" class="cluster">
<title>cluster_system</title>
<g id="a_clust2"><a xlink:title="byte_order=little&#10;cache_line_size=64&#10;eventq_index=0&#10;exit_on_work_items=false&#10;init_param=0&#10;m5ops_base=0&#10;mem_mode=timing&#10;mem_ranges=0:536870912&#10;memories=system.mem_ctrls.dram&#10;mmap_using_noreserve=false&#10;multi_thread=false&#10;&#10;um_work_ids=16&#10;&#13;eadfile=&#10;&#13;edirect_paths=system.redirect_paths0 system.redirect_paths1 system.redirect_paths2&#10;shared_backstore=&#10;symbolfile=&#10;thermal_components=&#10;thermal_model=Null&#10;work_begin_ckpt_count=0&#10;work_begin_cpu_id_exit=&#45;1&#10;work_begin_exit_count=0&#10;work_cpus_ckpt_count=0&#10;work_end_ckpt_count=0&#10;work_end_exit_count=0&#10;work_item_id=&#45;1&#10;workload=Null">
<path fill="#e4e7eb" stroke="#000000" d="M28,-16C28,-16 640,-16 640,-16 646,-16 652,-22 652,-28 652,-28 652,-564 652,-564 652,-570 646,-576 640,-576 640,-576 28,-576 28,-576 22,-576 16,-570 16,-564 16,-564 16,-28 16,-28 16,-22 22,-16 28,-16"/>
<text text-anchor="middle" x="334" y="-560.8" font-family="Arial" font-size="14.00" fill="#000000">system </text>
<text text-anchor="middle" x="334" y="-545.8" font-family="Arial" font-size="14.00" fill="#000000">: System</text>
</a>
</g>
</g>
<g id="clust4" class="cluster">
<title>cluster_system_cpu</title>
<g id="a_clust4"><a xlink:title="branchPred=Null&#10;checker=Null&#10;clk_domain=system.cpu_clk_domain&#10;cpu_id=0&#10;do_checkpoint_insts=true&#10;do_statistics_insts=true&#10;dtb=system.cpu.dtb&#10;eventq_index=0&#10;function_trace=false&#10;function_trace_start=0&#10;interrupts=system.cpu.interrupts&#10;isa=system.cpu.isa&#10;itb=system.cpu.itb&#10;max_insts_all_threads=0&#10;max_insts_any_thread=0&#10;&#10;umThreads=1&#10;power_gating_on_idle=false&#10;power_model=&#10;power_state=system.cpu.power_state&#10;progress_interval=0&#10;pwr_gating_latency=300&#10;simpoint_start_insts=&#10;socket_id=0&#10;switched_out=false&#10;syscallRetryLatency=10000&#10;system=system&#10;tracer=system.cpu.tracer&#10;wait_for_remote_gdb=false&#10;workload=system.cpu.workload">
<path fill="#bbc6d9" stroke="#000000" d="M36,-24C36,-24 518,-24 518,-24 524,-24 530,-30 530,-36 530,-36 530,-334 530,-334 530,-340 524,-346 518,-346 518,-346 36,-346 36,-346 30,-346 24,-340 24,-334 24,-334 24,-36 24,-36 24,-30 30,-24 36,-24"/>
<text text-anchor="middle" x="277" y="-330.8" font-family="Arial" font-size="14.00" fill="#000000">cpu </text>
<text text-anchor="middle" x="277" y="-315.8" font-family="Arial" font-size="14.00" fill="#000000">: TimingSimpleCPU</text>
</a>
</g>
</g>
<g id="clust5" class="cluster">
<title>cluster_system_cpu_dtb</title>
<g id="a_clust5"><a xlink:title="eventq_index=0&#10;is_stage2=false&#10;size=64&#10;sys=system&#10;walker=system.cpu.dtb.walker">
<path fill="#bab6ae" stroke="#000000" d="M395,-155C395,-155 510,-155 510,-155 516,-155 522,-161 522,-167 522,-167 522,-288 522,-288 522,-294 516,-300 510,-300 510,-300 395,-300 395,-300 389,-300 383,-294 383,-288 383,-288 383,-167 383,-167 383,-161 389,-155 395,-155"/>
<text text-anchor="middle" x="452.5" y="-284.8" font-family="Arial" font-size="14.00" fill="#000000">dtb </text>
<text text-anchor="middle" x="452.5" y="-269.8" font-family="Arial" font-size="14.00" fill="#000000">: ArmDTB</text>
</a>
</g>
</g>
<g id="clust10" class="cluster">
<title>cluster_system_cpu_dtb_walker</title>
<g id="a_clust10"><a xlink:title="clk_domain=system.cpu_clk_domain&#10;eventq_index=0&#10;is_stage2=false&#10;&#10;um_squash_per_cycle=2&#10;power_model=&#10;power_state=system.cpu.dtb.walker.power_state&#10;sys=system">
<path fill="#9f9c95" stroke="#000000" d="M403,-163C403,-163 502,-163 502,-163 508,-163 514,-169 514,-175 514,-175 514,-242 514,-242 514,-248 508,-254 502,-254 502,-254 403,-254 403,-254 397,-254 391,-248 391,-242 391,-242 391,-175 391,-175 391,-169 397,-163 403,-163"/>
<text text-anchor="middle" x="452.5" y="-238.8" font-family="Arial" font-size="14.00" fill="#000000">walker </text>
<text text-anchor="middle" x="452.5" y="-223.8" font-family="Arial" font-size="14.00" fill="#000000">: ArmTableWalker</text>
</a>
</g>
</g>
<g id="clust12" class="cluster">
<title>cluster_system_cpu_itb</title>
<g id="a_clust12"><a xlink:title="eventq_index=0&#10;is_stage2=false&#10;size=64&#10;sys=system&#10;walker=system.cpu.itb.walker">
<path fill="#bab6ae" stroke="#000000" d="M248,-155C248,-155 363,-155 363,-155 369,-155 375,-161 375,-167 375,-167 375,-288 375,-288 375,-294 369,-300 363,-300 363,-300 248,-300 248,-300 242,-300 236,-294 236,-288 236,-288 236,-167 236,-167 236,-161 242,-155 248,-155"/>
<text text-anchor="middle" x="305.5" y="-284.8" font-family="Arial" font-size="14.00" fill="#000000">itb </text>
<text text-anchor="middle" x="305.5" y="-269.8" font-family="Arial" font-size="14.00" fill="#000000">: ArmITB</text>
</a>
</g>
</g>
<g id="clust17" class="cluster">
<title>cluster_system_cpu_itb_walker</title>
<g id="a_clust17"><a xlink:title="clk_domain=system.cpu_clk_domain&#10;eventq_index=0&#10;is_stage2=false&#10;&#10;um_squash_per_cycle=2&#10;power_model=&#10;power_state=system.cpu.itb.walker.power_state&#10;sys=system">
<path fill="#9f9c95" stroke="#000000" d="M256,-163C256,-163 355,-163 355,-163 361,-163 367,-169 367,-175 367,-175 367,-242 367,-242 367,-248 361,-254 355,-254 355,-254 256,-254 256,-254 250,-254 244,-248 244,-242 244,-242 244,-175 244,-175 244,-169 250,-163 256,-163"/>
<text text-anchor="middle" x="305.5" y="-238.8" font-family="Arial" font-size="14.00" fill="#000000">walker </text>
<text text-anchor="middle" x="305.5" y="-223.8" font-family="Arial" font-size="14.00" fill="#000000">: ArmTableWalker</text>
</a>
</g>
</g>
<g id="clust23" class="cluster">
<title>cluster_system_cpu_icache</title>
<g id="a_clust23"><a xlink:title="addr_ranges=0:18446744073709551615&#10;assoc=2&#10;clk_domain=system.cpu_clk_domain&#10;clusivity=mostly_incl&#10;compressor=Null&#10;data_latency=2&#10;demand_mshr_reserve=1&#10;eventq_index=0&#10;is_read_only=true&#10;max_miss_count=0&#10;mshrs=4&#10;power_model=&#10;power_state=system.cpu.icache.power_state&#10;prefetch_on_access=false&#10;prefetcher=Null&#10;&#13;eplacement_policy=system.cpu.icache.replacement_policy&#10;&#13;esponse_latency=2&#10;sequential_access=false&#10;size=32768&#10;system=system&#10;tag_latency=2&#10;tags=system.cpu.icache.tags&#10;tgts_per_mshr=20&#10;warmup_percentage=0&#10;write_allocator=Null&#10;write_buffers=8&#10;writeback_clean=true">
<path fill="#bab6ae" stroke="#000000" d="M99,-32C99,-32 261,-32 261,-32 267,-32 273,-38 273,-44 273,-44 273,-111 273,-111 273,-117 267,-123 261,-123 261,-123 99,-123 99,-123 93,-123 87,-117 87,-111 87,-111 87,-44 87,-44 87,-38 93,-32 99,-32"/>
<text text-anchor="middle" x="180" y="-107.8" font-family="Arial" font-size="14.00" fill="#000000">icache </text>
<text text-anchor="middle" x="180" y="-92.8" font-family="Arial" font-size="14.00" fill="#000000">: L1_ICache</text>
</a>
</g>
</g>
<g id="clust29" class="cluster">
<title>cluster_system_cpu_dcache</title>
<g id="a_clust29"><a xlink:title="addr_ranges=0:18446744073709551615&#10;assoc=2&#10;clk_domain=system.cpu_clk_domain&#10;clusivity=mostly_incl&#10;compressor=Null&#10;data_latency=2&#10;demand_mshr_reserve=1&#10;eventq_index=0&#10;is_read_only=false&#10;max_miss_count=0&#10;mshrs=4&#10;power_model=&#10;power_state=system.cpu.dcache.power_state&#10;prefetch_on_access=false&#10;prefetcher=Null&#10;&#13;eplacement_policy=system.cpu.dcache.replacement_policy&#10;&#13;esponse_latency=2&#10;sequential_access=false&#10;size=65536&#10;system=system&#10;tag_latency=2&#10;tags=system.cpu.dcache.tags&#10;tgts_per_mshr=20&#10;warmup_percentage=0&#10;write_allocator=Null&#10;write_buffers=8&#10;writeback_clean=false">
<path fill="#bab6ae" stroke="#000000" d="M320,-32C320,-32 482,-32 482,-32 488,-32 494,-38 494,-44 494,-44 494,-111 494,-111 494,-117 488,-123 482,-123 482,-123 320,-123 320,-123 314,-123 308,-117 308,-111 308,-111 308,-44 308,-44 308,-38 314,-32 320,-32"/>
<text text-anchor="middle" x="401" y="-107.8" font-family="Arial" font-size="14.00" fill="#000000">dcache </text>
<text text-anchor="middle" x="401" y="-92.8" font-family="Arial" font-size="14.00" fill="#000000">: L1_DCache</text>
</a>
</g>
</g>
<g id="clust40" class="cluster">
<title>cluster_system_membus</title>
<g id="a_clust40"><a xlink:title="clk_domain=system.clk_domain&#10;eventq_index=0&#10;forward_latency=4&#10;frontend_latency=3&#10;header_latency=1&#10;max_outstanding_snoops=512&#10;max_routing_table_size=512&#10;point_of_coherency=true&#10;point_of_unification=true&#10;power_model=&#10;power_state=system.membus.power_state&#10;&#13;esponse_latency=2&#10;snoop_filter=system.membus.snoop_filter&#10;snoop_response_latency=4&#10;system=system&#10;use_default_range=false&#10;width=16">
<path fill="#6f798c" stroke="#000000" d="M396,-354C396,-354 632,-354 632,-354 638,-354 644,-360 644,-366 644,-366 644,-433 644,-433 644,-439 638,-445 632,-445 632,-445 396,-445 396,-445 390,-445 384,-439 384,-433 384,-433 384,-366 384,-366 384,-360 390,-354 396,-354"/>
<text text-anchor="middle" x="514" y="-429.8" font-family="Arial" font-size="14.00" fill="#000000">membus </text>
<text text-anchor="middle" x="514" y="-414.8" font-family="Arial" font-size="14.00" fill="#000000">: SystemXBar</text>
</a>
</g>
</g>
<g id="clust43" class="cluster">
<title>cluster_system_mem_ctrls</title>
<g id="a_clust43"><a xlink:title="clk_domain=system.clk_domain&#10;command_window=10000&#10;dram=system.mem_ctrls.dram&#10;eventq_index=0&#10;mem_sched_policy=frfcfs&#10;min_writes_per_switch=16&#10;&#10;vm=Null&#10;power_model=&#10;power_state=system.mem_ctrls.power_state&#10;qos_policy=Null&#10;qos_priorities=1&#10;qos_priority_escalation=false&#10;qos_q_policy=fifo&#10;qos_requestors= &#160;&#160;&#160;&#160;&#160;&#160;&#160;&#160;&#160;&#160;&#160;&#160;&#160;&#160;&#10;qos_syncro_scheduler=false&#10;qos_turnaround_policy=Null&#10;static_backend_latency=10000&#10;static_frontend_latency=10000&#10;system=system&#10;write_high_thresh_perc=85&#10;write_low_thresh_perc=50">
<path fill="#bab6ae" stroke="#000000" d="M572,-163C572,-163 632,-163 632,-163 638,-163 644,-169 644,-175 644,-175 644,-242 644,-242 644,-248 638,-254 632,-254 632,-254 572,-254 572,-254 566,-254 560,-248 560,-242 560,-242 560,-175 560,-175 560,-169 566,-163 572,-163"/>
<text text-anchor="middle" x="602" y="-238.8" font-family="Arial" font-size="14.00" fill="#000000">mem_ctrls </text>
<text text-anchor="middle" x="602" y="-223.8" font-family="Arial" font-size="14.00" fill="#000000">: MemCtrl</text>
</a>
</g>
</g>
<!-- system_system_port -->
<g id="node1" class="node">
<title>system_system_port</title>
<path fill="#b6b8bc" stroke="#000000" d="M412.5,-493.5C412.5,-493.5 479.5,-493.5 479.5,-493.5 485.5,-493.5 491.5,-499.5 491.5,-505.5 491.5,-505.5 491.5,-517.5 491.5,-517.5 491.5,-523.5 485.5,-529.5 479.5,-529.5 479.5,-529.5 412.5,-529.5 412.5,-529.5 406.5,-529.5 400.5,-523.5 400.5,-517.5 400.5,-517.5 400.5,-505.5 400.5,-505.5 400.5,-499.5 406.5,-493.5 412.5,-493.5"/>
<text text-anchor="middle" x="446" y="-507.8" font-family="Arial" font-size="14.00" fill="#000000">system_port</text>
</g>
<!-- system_membus_cpu_side_ports -->
<g id="node10" class="node">
<title>system_membus_cpu_side_ports</title>
<path fill="#586070" stroke="#000000" d="M404,-362.5C404,-362.5 488,-362.5 488,-362.5 494,-362.5 500,-368.5 500,-374.5 500,-374.5 500,-386.5 500,-386.5 500,-392.5 494,-398.5 488,-398.5 488,-398.5 404,-398.5 404,-398.5 398,-398.5 392,-392.5 392,-386.5 392,-386.5 392,-374.5 392,-374.5 392,-368.5 398,-362.5 404,-362.5"/>
<text text-anchor="middle" x="446" y="-376.8" font-family="Arial" font-size="14.00" fill="#000000">cpu_side_ports</text>
</g>
<!-- system_system_port&#45;&gt;system_membus_cpu_side_ports -->
<g id="edge1" class="edge">
<title>system_system_port&#45;&gt;system_membus_cpu_side_ports</title>
<path fill="none" stroke="black" d="M446,-493.37C446,-471.78 446,-434.41 446,-408.85"/>
<polygon fill="black" stroke="black" points="449.5,-408.7 446,-398.7 442.5,-408.7 449.5,-408.7"/>
</g>
<!-- system_cpu_icache_port -->
<g id="node2" class="node">
<title>system_cpu_icache_port</title>
<path fill="#959ead" stroke="#000000" d="M44,-171.5C44,-171.5 106,-171.5 106,-171.5 112,-171.5 118,-177.5 118,-183.5 118,-183.5 118,-195.5 118,-195.5 118,-201.5 112,-207.5 106,-207.5 106,-207.5 44,-207.5 44,-207.5 38,-207.5 32,-201.5 32,-195.5 32,-195.5 32,-183.5 32,-183.5 32,-177.5 38,-171.5 44,-171.5"/>
<text text-anchor="middle" x="75" y="-185.8" font-family="Arial" font-size="14.00" fill="#000000">icache_port</text>
</g>
<!-- system_cpu_icache_cpu_side -->
<g id="node6" class="node">
<title>system_cpu_icache_cpu_side</title>
<path fill="#94918b" stroke="#000000" d="M107.5,-40.5C107.5,-40.5 154.5,-40.5 154.5,-40.5 160.5,-40.5 166.5,-46.5 166.5,-52.5 166.5,-52.5 166.5,-64.5 166.5,-64.5 166.5,-70.5 160.5,-76.5 154.5,-76.5 154.5,-76.5 107.5,-76.5 107.5,-76.5 101.5,-76.5 95.5,-70.5 95.5,-64.5 95.5,-64.5 95.5,-52.5 95.5,-52.5 95.5,-46.5 101.5,-40.5 107.5,-40.5"/>
<text text-anchor="middle" x="131" y="-54.8" font-family="Arial" font-size="14.00" fill="#000000">cpu_side</text>
</g>
<!-- system_cpu_icache_port&#45;&gt;system_cpu_icache_cpu_side -->
<g id="edge2" class="edge">
<title>system_cpu_icache_port&#45;&gt;system_cpu_icache_cpu_side</title>
<path fill="none" stroke="black" d="M82.44,-171.37C91.89,-149.59 108.32,-111.74 119.42,-86.17"/>
<polygon fill="black" stroke="black" points="122.76,-87.27 123.53,-76.7 116.34,-84.48 122.76,-87.27"/>
</g>
<!-- system_cpu_dcache_port -->
<g id="node3" class="node">
<title>system_cpu_dcache_port</title>
<path fill="#959ead" stroke="#000000" d="M148.5,-171.5C148.5,-171.5 215.5,-171.5 215.5,-171.5 221.5,-171.5 227.5,-177.5 227.5,-183.5 227.5,-183.5 227.5,-195.5 227.5,-195.5 227.5,-201.5 221.5,-207.5 215.5,-207.5 215.5,-207.5 148.5,-207.5 148.5,-207.5 142.5,-207.5 136.5,-201.5 136.5,-195.5 136.5,-195.5 136.5,-183.5 136.5,-183.5 136.5,-177.5 142.5,-171.5 148.5,-171.5"/>
<text text-anchor="middle" x="182" y="-185.8" font-family="Arial" font-size="14.00" fill="#000000">dcache_port</text>
</g>
<!-- system_cpu_dcache_cpu_side -->
<g id="node8" class="node">
<title>system_cpu_dcache_cpu_side</title>
<path fill="#94918b" stroke="#000000" d="M328.5,-40.5C328.5,-40.5 375.5,-40.5 375.5,-40.5 381.5,-40.5 387.5,-46.5 387.5,-52.5 387.5,-52.5 387.5,-64.5 387.5,-64.5 387.5,-70.5 381.5,-76.5 375.5,-76.5 375.5,-76.5 328.5,-76.5 328.5,-76.5 322.5,-76.5 316.5,-70.5 316.5,-64.5 316.5,-64.5 316.5,-52.5 316.5,-52.5 316.5,-46.5 322.5,-40.5 328.5,-40.5"/>
<text text-anchor="middle" x="352" y="-54.8" font-family="Arial" font-size="14.00" fill="#000000">cpu_side</text>
</g>
<!-- system_cpu_dcache_port&#45;&gt;system_cpu_dcache_cpu_side -->
<g id="edge3" class="edge">
<title>system_cpu_dcache_port&#45;&gt;system_cpu_dcache_cpu_side</title>
<path fill="none" stroke="black" d="M208.3,-171.39C227.65,-158.55 254.41,-140.29 277,-123 293.31,-110.52 310.87,-95.74 324.89,-83.58"/>
<polygon fill="black" stroke="black" points="327.47,-85.97 332.7,-76.76 322.86,-80.7 327.47,-85.97"/>
</g>
<!-- system_cpu_dtb_walker_port -->
<g id="node4" class="node">
<title>system_cpu_dtb_walker_port</title>
<path fill="#7f7c77" stroke="#000000" d="M431,-171.5C431,-171.5 461,-171.5 461,-171.5 467,-171.5 473,-177.5 473,-183.5 473,-183.5 473,-195.5 473,-195.5 473,-201.5 467,-207.5 461,-207.5 461,-207.5 431,-207.5 431,-207.5 425,-207.5 419,-201.5 419,-195.5 419,-195.5 419,-183.5 419,-183.5 419,-177.5 425,-171.5 431,-171.5"/>
<text text-anchor="middle" x="446" y="-185.8" font-family="Arial" font-size="14.00" fill="#000000">port</text>
</g>
<!-- system_cpu_itb_walker_port -->
<g id="node5" class="node">
<title>system_cpu_itb_walker_port</title>
<path fill="#7f7c77" stroke="#000000" d="M317,-171.5C317,-171.5 347,-171.5 347,-171.5 353,-171.5 359,-177.5 359,-183.5 359,-183.5 359,-195.5 359,-195.5 359,-201.5 353,-207.5 347,-207.5 347,-207.5 317,-207.5 317,-207.5 311,-207.5 305,-201.5 305,-195.5 305,-195.5 305,-183.5 305,-183.5 305,-177.5 311,-171.5 317,-171.5"/>
<text text-anchor="middle" x="332" y="-185.8" font-family="Arial" font-size="14.00" fill="#000000">port</text>
</g>
<!-- system_cpu_icache_mem_side -->
<g id="node7" class="node">
<title>system_cpu_icache_mem_side</title>
<path fill="#94918b" stroke="#000000" d="M197,-40.5C197,-40.5 253,-40.5 253,-40.5 259,-40.5 265,-46.5 265,-52.5 265,-52.5 265,-64.5 265,-64.5 265,-70.5 259,-76.5 253,-76.5 253,-76.5 197,-76.5 197,-76.5 191,-76.5 185,-70.5 185,-64.5 185,-64.5 185,-52.5 185,-52.5 185,-46.5 191,-40.5 197,-40.5"/>
<text text-anchor="middle" x="225" y="-54.8" font-family="Arial" font-size="14.00" fill="#000000">mem_side</text>
</g>
<!-- system_cpu_dcache_mem_side -->
<g id="node9" class="node">
<title>system_cpu_dcache_mem_side</title>
<path fill="#94918b" stroke="#000000" d="M418,-40.5C418,-40.5 474,-40.5 474,-40.5 480,-40.5 486,-46.5 486,-52.5 486,-52.5 486,-64.5 486,-64.5 486,-70.5 480,-76.5 474,-76.5 474,-76.5 418,-76.5 418,-76.5 412,-76.5 406,-70.5 406,-64.5 406,-64.5 406,-52.5 406,-52.5 406,-46.5 412,-40.5 418,-40.5"/>
<text text-anchor="middle" x="446" y="-54.8" font-family="Arial" font-size="14.00" fill="#000000">mem_side</text>
</g>
<!-- system_membus_cpu_side_ports&#45;&gt;system_cpu_dtb_walker_port -->
<g id="edge7" class="edge">
<title>system_membus_cpu_side_ports&#45;&gt;system_cpu_dtb_walker_port</title>
<path fill="none" stroke="black" d="M446,-352.16C446,-312.61 446,-240.59 446,-207.7"/>
<polygon fill="black" stroke="black" points="442.5,-352.39 446,-362.39 449.5,-352.39 442.5,-352.39"/>
</g>
<!-- system_membus_cpu_side_ports&#45;&gt;system_cpu_itb_walker_port -->
<g id="edge6" class="edge">
<title>system_membus_cpu_side_ports&#45;&gt;system_cpu_itb_walker_port</title>
<path fill="none" stroke="black" d="M398.26,-356.64C394.12,-353.45 390.27,-349.91 387,-346 352.07,-304.29 338.69,-238.84 334.12,-207.86"/>
<polygon fill="black" stroke="black" points="396.3,-359.53 406.51,-362.35 400.28,-353.78 396.3,-359.53"/>
</g>
<!-- system_membus_cpu_side_ports&#45;&gt;system_cpu_icache_mem_side -->
<g id="edge4" class="edge">
<title>system_membus_cpu_side_ports&#45;&gt;system_cpu_icache_mem_side</title>
<path fill="none" stroke="black" d="M502.03,-357.89C509.56,-353.94 515.55,-349.84 518,-346 529.41,-328.11 531.85,-171.08 518,-155 486.61,-118.57 348.05,-142.29 304,-123 279.18,-112.13 255.63,-91.36 240.81,-76.53"/>
<polygon fill="black" stroke="black" points="500.07,-354.95 492.59,-362.45 503.12,-361.25 500.07,-354.95"/>
</g>
<!-- system_membus_cpu_side_ports&#45;&gt;system_cpu_dcache_mem_side -->
<g id="edge5" class="edge">
<title>system_membus_cpu_side_ports&#45;&gt;system_cpu_dcache_mem_side</title>
<path fill="none" stroke="black" d="M495.99,-358.76C500.37,-357.1 504.75,-355.49 509,-354 520.81,-349.87 528.51,-356.03 536,-346 561.39,-311.99 551.66,-194.45 536,-155 522.89,-121.97 492.34,-93.73 470.47,-76.71"/>
<polygon fill="black" stroke="black" points="494.51,-355.58 486.45,-362.46 497.04,-362.1 494.51,-355.58"/>
</g>
<!-- system_membus_mem_side_ports -->
<g id="node11" class="node">
<title>system_membus_mem_side_ports</title>
<path fill="#586070" stroke="#000000" d="M530,-362.5C530,-362.5 624,-362.5 624,-362.5 630,-362.5 636,-368.5 636,-374.5 636,-374.5 636,-386.5 636,-386.5 636,-392.5 630,-398.5 624,-398.5 624,-398.5 530,-398.5 530,-398.5 524,-398.5 518,-392.5 518,-386.5 518,-386.5 518,-374.5 518,-374.5 518,-368.5 524,-362.5 530,-362.5"/>
<text text-anchor="middle" x="577" y="-376.8" font-family="Arial" font-size="14.00" fill="#000000">mem_side_ports</text>
</g>
<!-- system_mem_ctrls_port -->
<g id="node12" class="node">
<title>system_mem_ctrls_port</title>
<path fill="#94918b" stroke="#000000" d="M582,-171.5C582,-171.5 612,-171.5 612,-171.5 618,-171.5 624,-177.5 624,-183.5 624,-183.5 624,-195.5 624,-195.5 624,-201.5 618,-207.5 612,-207.5 612,-207.5 582,-207.5 582,-207.5 576,-207.5 570,-201.5 570,-195.5 570,-195.5 570,-183.5 570,-183.5 570,-177.5 576,-171.5 582,-171.5"/>
<text text-anchor="middle" x="597" y="-185.8" font-family="Arial" font-size="14.00" fill="#000000">port</text>
</g>
<!-- system_membus_mem_side_ports&#45;&gt;system_mem_ctrls_port -->
<g id="edge8" class="edge">
<title>system_membus_mem_side_ports&#45;&gt;system_mem_ctrls_port</title>
<path fill="none" stroke="black" d="M578.81,-362.39C582.29,-329.52 589.94,-257.26 594.12,-217.7"/>
<polygon fill="black" stroke="black" points="597.61,-218.02 595.18,-207.7 590.65,-217.28 597.61,-218.02"/>
</g>
</g>
</svg>
